<?xml version="1.0" encoding="UTF-8" standalone="no"?>
<!DOCTYPE svg PUBLIC "-//W3C//DTD SVG 1.1//EN" "http://www.w3.org/Graphics/SVG/1.1/DTD/svg11.dtd">
<svg width="100%" height="100%" viewBox="0 0 79 80" version="1.1" xmlns="http://www.w3.org/2000/svg" xmlns:xlink="http://www.w3.org/1999/xlink" xml:space="preserve" xmlns:serif="http://www.serif.com/" style="fill-rule:evenodd;clip-rule:evenodd;stroke-linejoin:round;stroke-miterlimit:2;">
    <g transform="matrix(1,0,0,1,-4283,-259)">
        <g transform="matrix(0.641337,0,0,0.469972,3942.38,-3493.85)">
            <g transform="matrix(1.55924,0,0,2.12779,-6147.13,7434.16)">
                <g id="icon-cross">
                    <path d="M4322.4,338.518C4343.94,338.518 4361.86,320.647 4361.86,299.114C4361.86,277.581 4343.89,259.71 4322.36,259.71C4300.87,259.71 4283,277.581 4283,299.114C4283,320.647 4300.92,338.518 4322.4,338.518ZM4309.56,315.618C4307.61,315.618 4306,314.007 4306,311.956C4306,311.028 4306.39,310.149 4307.02,309.466L4317.33,299.163L4307.02,288.86C4306.39,288.177 4306,287.298 4306,286.37C4306,284.319 4307.61,282.805 4309.56,282.805C4310.59,282.805 4311.37,283.147 4312.05,283.782L4322.4,294.134L4332.9,283.733C4333.64,283.05 4334.42,282.708 4335.34,282.708C4337.35,282.708 4338.96,284.27 4338.96,286.272C4338.96,287.249 4338.66,288.079 4337.88,288.811L4327.53,299.163L4337.83,309.417C4338.57,310.1 4338.91,310.979 4338.91,311.956C4338.91,314.007 4337.3,315.618 4335.25,315.618C4334.27,315.618 4333.34,315.276 4332.71,314.593L4322.4,304.241L4312.15,314.593C4311.52,315.276 4310.59,315.618 4309.56,315.618Z" style="fill-rule:nonzero;"/>
                </g>
            </g>
        </g>
    </g>
</svg>
