<?xml version="1.0" encoding="UTF-8" standalone="no"?>
<!DOCTYPE svg PUBLIC "-//W3C//DTD SVG 1.1//EN" "http://www.w3.org/Graphics/SVG/1.1/DTD/svg11.dtd">
<svg width="100%" height="100%" viewBox="0 0 297 296" version="1.1" xmlns="http://www.w3.org/2000/svg" xmlns:xlink="http://www.w3.org/1999/xlink" xml:space="preserve" xmlns:serif="http://www.serif.com/" style="fill-rule:evenodd;clip-rule:evenodd;stroke-linejoin:round;stroke-miterlimit:2;">
    <g transform="matrix(1,0,0,1,-4610,-715)">
        <g transform="matrix(0.641337,0,0,0.469972,3942.38,-3493.85)">
            <g id="icon-webshap" transform="matrix(0.578125,0,0,0.578125,-5.21289,4372.27)">
                <g transform="matrix(1.55924,0,0,2.12779,1811.24,7927.81)">
                    <path d="M344.3,160L167.7,160C173.8,123.6 183.2,91.4 194.7,65.3C205.2,41.7 216.9,24.6 228.2,13.8C239.4,3.2 248.7,0 256,0C263.3,0 272.6,3.2 283.8,13.8C295.1,24.6 306.8,41.7 317.3,65.3C328.9,91.3 338.3,123.5 344.3,160Z" style="fill:rgb(74,126,214);fill-rule:nonzero;"/>
                </g>
                <g transform="matrix(1.55924,0,0,2.12779,1811.24,7927.81)">
                    <path d="M493.4,160L376.7,160C366.7,96.1 346.9,42.6 321.4,8.4C399.7,29.1 463.4,85.9 493.3,160L493.4,160Z" style="fill:rgb(137,88,168);fill-rule:nonzero;"/>
                </g>
                <g transform="matrix(1.55924,0,0,2.12779,1811.24,7927.81)">
                    <path d="M493.4,352C463.4,426.1 399.8,482.9 321.5,503.6C347,469.4 366.7,415.9 376.8,352L493.4,352Z" style="fill:rgb(229,32,102);fill-rule:nonzero;"/>
                </g>
                <g transform="matrix(1.55924,0,0,2.12779,1811.24,7927.81)">
                    <path d="M194.7,446.6C183.1,420.6 173.8,388.4 167.7,352L344.3,352C338.2,388.4 328.8,420.6 317.3,446.6C306.8,470.2 295.1,487.3 283.8,498.1C272.6,508.8 263.3,512 256,512C248.7,512 239.4,508.8 228.2,498.2C216.9,487.4 205.2,470.3 194.7,446.7L194.7,446.6Z" style="fill:rgb(196,52,126);fill-rule:nonzero;"/>
                </g>
                <g transform="matrix(1.55924,0,0,2.12779,1811.24,7927.81)">
                    <path d="M135.3,352C145.3,415.9 165.1,469.4 190.6,503.6C112.2,482.9 48.6,426.1 18.6,352L135.3,352Z" style="fill:rgb(131,91,172);fill-rule:nonzero;"/>
                </g>
                <g transform="matrix(1.55924,0,0,2.12779,1811.24,7927.81)">
                    <path d="M380.8,192L503.9,192C509.2,212.5 512,233.9 512,256C512,278.1 509.2,299.5 503.9,320L380.8,320C382.9,299.4 384,278 384,256C384,234 382.9,212.6 380.8,192Z" style="fill:rgb(196,52,126);fill-rule:nonzero;"/>
                </g>
                <g transform="matrix(1.55924,0,0,2.12779,1811.24,7927.81)">
                    <path d="M352,256C352,278.2 350.8,299.6 348.7,320L163.3,320C161.1,299.6 160,278.2 160,256C160,233.8 161.2,212.4 163.3,192L348.7,192C350.9,212.4 352,233.8 352,256Z" style="fill:rgb(137,88,168);fill-rule:nonzero;"/>
                </g>
                <g transform="matrix(1.55924,0,0,2.12779,1811.24,7927.81)">
                    <path d="M8.1,192L131.2,192C129.1,212.6 128,234 128,256C128,278 129.1,299.4 131.2,320L8.1,320C2.8,299.5 0,278.1 0,256C0,233.9 2.8,212.5 8.1,192Z" style="fill:rgb(74,126,214);fill-rule:nonzero;"/>
                </g>
                <g transform="matrix(1.55924,0,0,2.12779,1811.24,7927.81)">
                    <path d="M135.3,160L18.6,160C48.6,85.9 112.2,29.1 190.6,8.4C165.1,42.6 145.3,96.1 135.3,160Z" style="fill:rgb(48,141,232);fill-rule:nonzero;"/>
                </g>
            </g>
        </g>
    </g>
</svg>
