<?xml version="1.0" encoding="UTF-8" standalone="no"?>
<!DOCTYPE svg PUBLIC "-//W3C//DTD SVG 1.1//EN" "http://www.w3.org/Graphics/SVG/1.1/DTD/svg11.dtd">
<svg width="100%" height="100%" viewBox="0 0 80 80" version="1.1" xmlns="http://www.w3.org/2000/svg" xmlns:xlink="http://www.w3.org/1999/xlink" xml:space="preserve" xmlns:serif="http://www.serif.com/" style="fill-rule:evenodd;clip-rule:evenodd;stroke-linejoin:round;stroke-miterlimit:2;">
    <g transform="matrix(1,0,0,1,-4835,-505)">
        <g transform="matrix(0.69193,0,0,0.584715,3943.68,-4251.87)">
            <g id="icon-upload" transform="matrix(1.44523,0,0,1.71023,1278.89,8263.67)">
                <path d="M46.24,4.15C67.773,4.15 85.693,-13.721 85.693,-35.254C85.693,-56.787 67.725,-74.658 46.191,-74.658C24.707,-74.658 6.836,-56.787 6.836,-35.254C6.836,-13.721 24.756,4.15 46.24,4.15ZM46.24,-3.271C28.516,-3.271 14.355,-17.481 14.355,-35.254C14.355,-53.027 28.467,-67.236 46.191,-67.236C63.965,-67.236 78.223,-53.027 78.223,-35.254C78.223,-17.481 64.014,-3.271 46.24,-3.271Z" style="fill-rule:nonzero;"/>
                <path d="M46.24,-16.064C48.145,-16.064 49.512,-17.383 49.512,-19.287L49.512,-36.523L49.17,-45.264L52.832,-40.723L56.738,-36.719C57.275,-36.084 58.106,-35.791 59.033,-35.791C60.791,-35.791 62.207,-37.158 62.207,-38.916C62.207,-39.795 61.914,-40.625 61.328,-41.162L48.828,-53.613C47.998,-54.443 47.266,-54.883 46.24,-54.883C45.313,-54.883 44.629,-54.492 43.701,-53.613L31.201,-41.162C30.615,-40.625 30.322,-39.795 30.322,-38.916C30.322,-37.158 31.69,-35.791 33.496,-35.791C34.424,-35.791 35.254,-36.133 35.791,-36.719L39.746,-40.723L43.359,-45.215L43.018,-36.523L43.018,-19.287C43.018,-17.383 44.385,-16.064 46.24,-16.064Z" style="fill-rule:nonzero;"/>
            </g>
        </g>
    </g>
</svg>
