<?xml version="1.0" encoding="UTF-8" standalone="no"?>
<!DOCTYPE svg PUBLIC "-//W3C//DTD SVG 1.1//EN" "http://www.w3.org/Graphics/SVG/1.1/DTD/svg11.dtd">
<svg width="100%" height="100%" viewBox="0 0 114 113" version="1.1" xmlns="http://www.w3.org/2000/svg" xmlns:xlink="http://www.w3.org/1999/xlink" xml:space="preserve" xmlns:serif="http://www.serif.com/" style="fill-rule:evenodd;clip-rule:evenodd;stroke-linejoin:round;stroke-miterlimit:2;">
    <g transform="matrix(1,0,0,1,-4435,-743)">
        <g transform="matrix(0.69193,0,0,0.584715,3943.68,-4251.87)">
            <g id="icon-benign" transform="matrix(1.44523,0,0,1.71023,711.401,8543.13)">
                <g transform="matrix(0,4.16667,-4.16667,0,112.5,0)">
                    <path d="M13.5,0C20.957,0 27,6.043 27,13.5C27,20.957 20.957,27 13.5,27C6.043,27 0,20.957 0,13.5C0,6.043 6.043,0 13.5,0" style="fill:rgb(255,204,77);fill-rule:nonzero;"/>
                </g>
                <g transform="matrix(4.16667,0,0,-4.16667,0,159.246)">
                    <path d="M7.887,20.504C7.922,20.367 8.762,17.219 13.5,17.219C18.238,17.219 19.078,20.367 19.113,20.504C19.156,20.668 19.082,20.836 18.934,20.918C18.789,21 18.605,20.977 18.484,20.86C18.473,20.848 17.02,19.469 13.5,19.469C9.98,19.469 8.527,20.848 8.516,20.86C8.441,20.93 8.348,20.969 8.25,20.969C8.188,20.969 8.125,20.953 8.066,20.922C7.918,20.836 7.848,20.668 7.887,20.504Z" style="fill:rgb(41,47,51);fill-rule:nonzero;"/>
                </g>
                <g transform="matrix(4.16667,0,0,-4.16667,0,84.375)">
                    <path d="M10.875,10.125C10.875,6.625 7.125,6.625 7.125,10.125C7.125,13.625 10.875,13.625 10.875,10.125" style="fill:rgb(41,47,51);fill-rule:nonzero;"/>
                </g>
                <g transform="matrix(4.16667,0,0,-4.16667,0,84.375)">
                    <path d="M19.875,10.125C19.875,6.625 16.125,6.625 16.125,10.125C16.125,13.625 19.875,13.625 19.875,10.125" style="fill:rgb(41,47,51);fill-rule:nonzero;"/>
                </g>
            </g>
        </g>
    </g>
</svg>
