<?xml version="1.0" encoding="UTF-8" standalone="no"?>
<!DOCTYPE svg PUBLIC "-//W3C//DTD SVG 1.1//EN" "http://www.w3.org/Graphics/SVG/1.1/DTD/svg11.dtd">
<svg width="100%" height="100%" viewBox="0 0 79 85" version="1.1" xmlns="http://www.w3.org/2000/svg" xmlns:xlink="http://www.w3.org/1999/xlink" xml:space="preserve" xmlns:serif="http://www.serif.com/" style="fill-rule:evenodd;clip-rule:evenodd;stroke-linejoin:round;stroke-miterlimit:2;">
    <g transform="matrix(1,0,0,1,-4525,-257)">
        <g transform="matrix(0.641337,0,0,0.469972,3942.38,-3493.85)">
            <g id="icon-box" transform="matrix(1.55924,0,0,2.12779,893.657,8144.12)">
                <path d="M46.045,7.52L46.045,-32.178L10.107,-52.93C9.863,-52.002 9.766,-50.928 9.766,-49.756L9.766,-20.361C9.766,-14.209 11.914,-12.06 15.674,-9.863L45.313,7.178C45.557,7.324 45.801,7.422 46.045,7.52ZM51.709,7.52C52.002,7.422 52.197,7.324 52.441,7.178L82.08,-9.863C85.84,-12.06 87.988,-14.209 87.988,-20.361L87.988,-49.756C87.988,-50.928 87.891,-52.002 87.647,-52.93L51.709,-32.178L51.709,7.52ZM48.877,-37.158L65.039,-46.387L28.955,-67.285L15.137,-59.375C14.258,-58.887 13.525,-58.398 12.842,-57.764L48.877,-37.158ZM70.801,-49.658L84.912,-57.764C84.277,-58.398 83.496,-58.887 82.617,-59.375L56.543,-74.365C53.955,-75.83 51.416,-76.611 48.877,-76.611C46.387,-76.611 43.799,-75.83 41.26,-74.365L34.473,-70.459L70.801,-49.658Z" style="fill-rule:nonzero;"/>
            </g>
        </g>
    </g>
</svg>
