<?xml version="1.0" encoding="UTF-8" standalone="no"?>
<!DOCTYPE svg PUBLIC "-//W3C//DTD SVG 1.1//EN" "http://www.w3.org/Graphics/SVG/1.1/DTD/svg11.dtd">
<svg width="100%" height="100%" viewBox="0 0 80 80" version="1.1" xmlns="http://www.w3.org/2000/svg" xmlns:xlink="http://www.w3.org/1999/xlink" xml:space="preserve" xmlns:serif="http://www.serif.com/" style="fill-rule:evenodd;clip-rule:evenodd;stroke-linejoin:round;stroke-miterlimit:2;">
    <g transform="matrix(1,0,0,1,-4946,-505)">
        <g transform="matrix(0.69193,0,0,0.584715,3943.68,-4251.87)">
            <g transform="matrix(1.44523,0,0,1.71023,-5699.53,7271.69)">
                <g id="icon-upload-2">
                    <path d="M4985.82,584.178C4964.34,584.178 4946.42,566.307 4946.42,544.773C4946.42,523.24 4964.29,505.369 4985.77,505.369C5007.31,505.369 5025.27,523.24 5025.27,544.773C5025.27,566.307 5007.35,584.178 4985.82,584.178ZM4985.87,564.744C4987.87,564.744 4989.29,563.328 4989.29,561.326L4989.29,543.504L4988.9,534.373L4992.66,539.109L4996.71,543.26C4997.34,543.943 4998.17,544.236 4999.1,544.236C5001.01,544.236 5002.47,542.82 5002.47,540.965C5002.47,540.037 5002.13,539.207 5001.49,538.621L4988.56,525.73C4987.68,524.803 4986.9,524.412 4985.87,524.412C4984.89,524.412 4984.21,524.803 4983.28,525.73L4970.24,538.621C4969.66,539.207 4969.36,540.037 4969.36,540.965C4969.36,542.82 4970.78,544.236 4972.64,544.236C4973.61,544.236 4974.44,543.895 4975.08,543.26L4979.13,539.109L4982.89,534.422L4982.5,543.504L4982.5,561.326C4982.5,563.328 4983.92,564.744 4985.87,564.744Z"/>
                </g>
            </g>
        </g>
    </g>
</svg>
