<?xml version="1.0" encoding="UTF-8" standalone="no"?>
<!DOCTYPE svg PUBLIC "-//W3C//DTD SVG 1.1//EN" "http://www.w3.org/Graphics/SVG/1.1/DTD/svg11.dtd">
<svg width="100%" height="100%" viewBox="0 0 240 275" version="1.1" xmlns="http://www.w3.org/2000/svg" xmlns:xlink="http://www.w3.org/1999/xlink" xml:space="preserve" xmlns:serif="http://www.serif.com/" style="fill-rule:evenodd;clip-rule:evenodd;stroke-linejoin:round;stroke-miterlimit:2;">
    <g transform="matrix(1,0,0,1,-4577,-650)">
        <g transform="matrix(0.69193,0,0,0.584715,3943.68,-4346.87)">
            <g transform="matrix(0.60872,0,0,0.720336,972.223,8646.78)">
                <path d="M272,384C281.6,352.1 301.5,324.9 321.2,297.8C326.4,290.7 331.6,283.6 336.6,276.4C356.4,247.9 368,213.4 368,176.1C368,78.8 289.2,0 192,0C94.8,0 16,78.8 16,176C16,213.3 27.6,247.9 47.4,276.3C52.4,283.5 57.6,290.6 62.8,297.7C82.6,324.8 102.5,352.1 112,383.9L272,383.9L272,384ZM192,512C236.2,512 272,476.2 272,432L272,416L112,416L112,432C112,476.2 147.8,512 192,512ZM112,176C112,184.8 104.8,192 96,192C87.2,192 80,184.8 80,176C80,114.1 130.1,64 192,64C200.8,64 208,71.2 208,80C208,88.8 200.8,96 192,96C147.8,96 112,131.8 112,176Z" style="fill-rule:nonzero;"/>
            </g>
            <g transform="matrix(1.44523,0,0,1.24076,-4944.75,7893.17)">
                <path d="M4181,530.135C4181,527.853 4179.66,526 4178,526L4172,526C4170.34,526 4169,527.853 4169,530.135L4169,572.865C4169,575.147 4170.34,577 4172,577L4178,577C4179.66,577 4181,575.147 4181,572.865L4181,530.135Z"/>
            </g>
            <g transform="matrix(1.25161,-0.855117,0.524252,1.07453,-4510.4,11581.9)">
                <path d="M4181,530.135C4181,527.853 4179.66,526 4178,526L4172,526C4170.34,526 4169,527.853 4169,530.135L4169,572.865C4169,575.147 4170.34,577 4172,577L4178,577C4179.66,577 4181,575.147 4181,572.865L4181,530.135Z"/>
            </g>
            <g transform="matrix(0.722617,-1.48111,0.90803,0.620379,-2575.67,14519.4)">
                <path d="M4181,530.135C4181,527.853 4179.66,526 4178,526L4172,526C4170.34,526 4169,527.853 4169,530.135L4169,572.865C4169,575.147 4170.34,577 4172,577L4178,577C4179.66,577 4181,575.147 4181,572.865L4181,530.135Z"/>
            </g>
            <g transform="matrix(1.25161,0.855117,-0.524252,1.07453,-3762.34,4441.66)">
                <path d="M4181,530.135C4181,527.853 4179.66,526 4178,526L4172,526C4170.34,526 4169,527.853 4169,530.135L4169,572.865C4169,575.147 4170.34,577 4172,577L4178,577C4179.66,577 4181,575.147 4181,572.865L4181,530.135Z"/>
            </g>
            <g transform="matrix(0.722617,1.48111,-0.90803,0.620379,-1279.99,2152.17)">
                <path d="M4181,530.135C4181,527.853 4179.66,526 4178,526L4172,526C4170.34,526 4169,527.853 4169,530.135L4169,572.865C4169,575.147 4170.34,577 4172,577L4178,577C4179.66,577 4181,575.147 4181,572.865L4181,530.135Z"/>
            </g>
        </g>
    </g>
</svg>
