<?xml version="1.0" encoding="UTF-8" standalone="no"?>
<!DOCTYPE svg PUBLIC "-//W3C//DTD SVG 1.1//EN" "http://www.w3.org/Graphics/SVG/1.1/DTD/svg11.dtd">
<svg width="100%" height="100%" viewBox="0 0 81 74" version="1.1" xmlns="http://www.w3.org/2000/svg" xmlns:xlink="http://www.w3.org/1999/xlink" xml:space="preserve" xmlns:serif="http://www.serif.com/" style="fill-rule:evenodd;clip-rule:evenodd;stroke-linejoin:round;stroke-miterlimit:2;">
    <g transform="matrix(1,0,0,1,-4946,-724)">
        <g transform="matrix(0.69193,0,0,0.584715,3943.68,-4251.87)">
            <g transform="matrix(1.44523,0,0,1.71023,-5699.53,7271.69)">
                <g id="icon-warn">
                    <path d="M4957.35,797.123C4950.57,797.123 4946.42,792.387 4946.42,786.186C4946.42,784.379 4946.9,782.523 4947.93,780.766L4977.32,729.74C4979.38,726.127 4982.99,724.223 4986.7,724.223C4990.41,724.223 4993.98,726.127 4996.07,729.74L5025.47,780.766C5026.44,782.475 5026.98,784.379 5026.98,786.186C5026.98,792.387 5022.83,797.123 5016.05,797.123L4957.35,797.123ZM4986.7,771.391C4988.85,771.391 4990.07,770.17 4990.12,767.875L4990.75,747.123C4990.8,744.828 4988.99,743.168 4986.65,743.168C4984.26,743.168 4982.55,744.779 4982.6,747.074L4983.14,767.875C4983.18,770.121 4984.45,771.391 4986.7,771.391ZM4986.7,784.623C4989.19,784.623 4991.34,782.719 4991.34,780.18C4991.34,777.69 4989.19,775.688 4986.7,775.688C4984.16,775.688 4982.01,777.69 4982.01,780.18C4982.01,782.67 4984.21,784.623 4986.7,784.623Z"/>
                </g>
            </g>
        </g>
    </g>
</svg>
