<?xml version="1.0" encoding="UTF-8" standalone="no"?>
<!DOCTYPE svg PUBLIC "-//W3C//DTD SVG 1.1//EN" "http://www.w3.org/Graphics/SVG/1.1/DTD/svg11.dtd">
<svg width="100%" height="100%" viewBox="0 0 80 80" version="1.1" xmlns="http://www.w3.org/2000/svg" xmlns:xlink="http://www.w3.org/1999/xlink" xml:space="preserve" xmlns:serif="http://www.serif.com/" style="fill-rule:evenodd;clip-rule:evenodd;stroke-linejoin:round;stroke-miterlimit:2;">
    <g transform="matrix(1,0,0,1,-4946,-607)">
        <g transform="matrix(0.69193,0,0,0.584715,3943.68,-4251.87)">
            <g transform="matrix(1.44523,0,0,1.71023,-5699.53,7271.69)">
                <g id="icon-refresh3">
                    <path d="M4985.82,686.199C4964.34,686.199 4946.42,668.328 4946.42,646.795C4946.42,625.262 4964.29,607.391 4985.77,607.391C5007.31,607.391 5025.27,625.262 5025.27,646.795C5025.27,668.328 5007.35,686.199 4985.82,686.199ZM4967.9,648.602C4967.9,658.66 4975.91,666.766 4985.82,666.766C4995.73,666.766 5003.74,658.66 5003.74,648.797C5003.74,647.088 5002.32,645.721 5000.71,645.721C4999,645.721 4997.59,647.088 4997.59,648.797C4997.59,655.291 4992.36,660.565 4985.82,660.565C4979.33,660.565 4974.1,655.291 4974.1,648.797C4974.1,642.254 4979.33,636.981 4985.82,636.981C4986.02,636.981 4986.31,636.981 4986.45,637.029L4983.38,640.106C4982.89,640.545 4982.55,641.277 4982.55,642.059C4982.55,643.621 4983.77,644.842 4985.38,644.842C4986.11,644.842 4986.85,644.5 4987.33,644.012L4994.85,636.59C4995.93,635.516 4995.83,633.611 4994.85,632.537L4987.38,624.969C4986.9,624.432 4986.16,624.139 4985.38,624.139C4983.77,624.139 4982.55,625.408 4982.55,626.971C4982.55,627.752 4982.94,628.484 4983.33,628.973L4985.33,631.072L4984.89,631.072C4976.06,631.072 4967.9,638.787 4967.9,648.602Z"/>
                </g>
            </g>
        </g>
    </g>
</svg>
