<?xml version="1.0" encoding="UTF-8" standalone="no"?>
<!DOCTYPE svg PUBLIC "-//W3C//DTD SVG 1.1//EN" "http://www.w3.org/Graphics/SVG/1.1/DTD/svg11.dtd">
<svg width="100%" height="100%" viewBox="0 0 100 76" version="1.1" xmlns="http://www.w3.org/2000/svg" xmlns:xlink="http://www.w3.org/1999/xlink" xml:space="preserve" xmlns:serif="http://www.serif.com/" style="fill-rule:evenodd;clip-rule:evenodd;stroke-linejoin:round;stroke-miterlimit:2;">
    <g transform="matrix(1,0,0,1,-4712,-505)">
        <g transform="matrix(0.69193,0,0,0.584715,3943.68,-4251.87)">
            <g id="icon-scissor" transform="matrix(1.44523,0,0,1.71023,1096.71,8258.49)">
                <path d="M25.391,3.369C34.082,3.369 41.113,-3.613 41.113,-12.402C41.113,-15.43 41.504,-16.602 43.799,-17.822L108.887,-52.246C107.471,-58.594 101.025,-59.961 90.527,-56.201L57.861,-44.629C53.076,-42.969 50.977,-40.527 49.609,-36.133L48.877,-33.35C48.242,-31.25 47.217,-30.225 43.945,-28.565L39.063,-26.025C37.988,-25.537 37.451,-25.391 36.67,-25.391C33.447,-25.391 32.617,-28.076 25.391,-28.076C16.699,-28.076 9.766,-21.094 9.766,-12.402C9.766,-3.662 16.699,3.369 25.391,3.369ZM25.391,-40.186C32.617,-40.186 33.447,-42.822 36.67,-42.822C37.451,-42.822 37.988,-42.676 39.063,-42.188L44.482,-39.356C45.361,-38.867 46.045,-38.428 46.631,-38.086L46.875,-38.086C47.9,-41.748 49.512,-43.897 52.295,-45.606L52.295,-45.85L44.385,-50.049C41.602,-51.514 41.113,-52.588 41.113,-55.859C41.113,-64.648 34.082,-71.631 25.391,-71.631C16.699,-71.631 9.766,-64.6 9.766,-55.859C9.766,-47.168 16.699,-40.186 25.391,-40.186ZM90.527,-11.963C101.074,-8.057 107.471,-9.57 108.887,-16.064L78.467,-32.227L61.377,-23.242L61.377,-22.754L90.527,-11.963ZM25.391,-3.613C20.654,-3.613 16.748,-7.52 16.748,-12.402C16.748,-17.236 20.654,-21.143 25.391,-21.143C30.273,-21.143 34.131,-17.236 34.131,-12.402C34.131,-7.52 30.273,-3.613 25.391,-3.613ZM25.391,-47.119C20.654,-47.119 16.748,-51.074 16.748,-55.859C16.748,-60.791 20.654,-64.648 25.391,-64.648C30.273,-64.648 34.131,-60.791 34.131,-55.859C34.131,-51.074 30.273,-47.119 25.391,-47.119ZM58.789,-32.959C57.031,-32.959 55.42,-34.473 55.42,-36.328C55.42,-38.232 57.031,-39.746 58.789,-39.746C60.693,-39.746 62.256,-38.232 62.256,-36.328C62.256,-34.473 60.693,-32.959 58.789,-32.959Z" style="fill-rule:nonzero;"/>
            </g>
        </g>
    </g>
</svg>
