<?xml version="1.0" encoding="UTF-8" standalone="no"?>
<!DOCTYPE svg PUBLIC "-//W3C//DTD SVG 1.1//EN" "http://www.w3.org/Graphics/SVG/1.1/DTD/svg11.dtd">
<svg width="100%" height="100%" viewBox="0 0 113 113" version="1.1" xmlns="http://www.w3.org/2000/svg" xmlns:xlink="http://www.w3.org/1999/xlink" xml:space="preserve" xmlns:serif="http://www.serif.com/" style="fill-rule:evenodd;clip-rule:evenodd;stroke-linejoin:round;stroke-miterlimit:2;">
    <g transform="matrix(1,0,0,1,-4571,-743)">
        <g transform="matrix(0.69193,0,0,0.584715,3943.68,-4251.87)">
            <g id="icon-toxic" transform="matrix(1.44523,0,0,1.71023,906.663,8543.13)">
                <g transform="matrix(0,4.16667,-4.16667,0,112.5,0)">
                    <path d="M13.5,0C20.957,0 27,6.043 27,13.5C27,20.953 20.957,27 13.5,27C6.047,27 0,20.953 0,13.5C0,6.043 6.047,0 13.5,0" style="fill:rgb(255,204,77);fill-rule:nonzero;"/>
                </g>
                <g transform="matrix(4.16667,0,0,-4.16667,0,132.925)">
                    <path d="M19.113,9.492C19.078,9.629 18.238,12.777 13.5,12.777C8.762,12.777 7.922,9.629 7.887,9.492C7.844,9.328 7.918,9.16 8.066,9.078C8.211,8.996 8.395,9.019 8.516,9.136C8.531,9.152 9.98,10.527 13.5,10.527C17.02,10.527 18.473,9.148 18.484,9.136C18.555,9.066 18.652,9.027 18.75,9.027C18.812,9.027 18.875,9.043 18.934,9.074C19.082,9.16 19.152,9.328 19.113,9.492ZM11.781,20.433C9.34,22.875 5.414,22.902 5.25,22.902C4.836,22.902 4.5,22.566 4.5,22.152C4.5,21.738 4.836,21.402 5.25,21.402C5.273,21.402 6.695,21.386 8.238,20.847C7.793,20.367 7.5,19.621 7.5,18.777C7.5,17.328 8.34,16.152 9.375,16.152C10.41,16.152 11.25,17.328 11.25,18.777C11.25,18.906 11.234,19.031 11.223,19.156C11.23,19.156 11.242,19.152 11.25,19.152C11.441,19.152 11.633,19.226 11.781,19.371C12.074,19.664 12.074,20.136 11.781,20.429L11.781,20.433ZM21.75,22.902C21.586,22.902 17.66,22.875 15.219,20.433C14.926,20.14 14.926,19.668 15.219,19.375C15.363,19.23 15.559,19.156 15.75,19.156C15.758,19.156 15.77,19.16 15.777,19.16C15.766,19.035 15.75,18.91 15.75,18.781C15.75,17.332 16.59,16.156 17.625,16.156C18.66,16.156 19.5,17.332 19.5,18.781C19.5,19.629 19.207,20.375 18.762,20.851C20.305,21.386 21.727,21.406 21.75,21.406C22.164,21.406 22.5,21.742 22.496,22.156C22.496,22.57 22.16,22.906 21.746,22.906L21.75,22.902Z" style="fill:rgb(41,47,51);fill-rule:nonzero;"/>
                </g>
                <g transform="matrix(4.16667,0,0,-4.16667,0,174.188)">
                    <path d="M22.305,17.055L4.695,17.055C3.762,17.055 3,17.817 3,18.75L3,23.055C3,23.989 3.762,24.75 4.695,24.75L22.305,24.75C23.238,24.75 24,23.989 24,23.055L24,18.75C24,17.817 23.238,17.055 22.305,17.055Z" style="fill:rgb(41,47,51);fill-rule:nonzero;"/>
                </g>
                <g transform="matrix(4.16667,0,0,-4.16667,0,173.55)">
                    <path d="M5.879,21.23L5.266,21.23C5.031,21.23 4.922,21.402 4.922,21.574C4.922,21.746 5.027,21.918 5.266,21.918L5.977,21.918L6.133,23.066C6.168,23.324 6.273,23.41 6.488,23.41C6.66,23.41 6.816,23.297 6.816,23.125C6.816,23.019 6.816,23.066 6.801,22.953L6.66,21.918L7.344,21.918L7.5,23.066C7.535,23.324 7.641,23.41 7.855,23.41C8.027,23.41 8.184,23.297 8.184,23.125C8.184,23.019 8.184,23.066 8.168,22.953L8.023,21.918L8.637,21.918C8.871,21.918 8.98,21.746 8.98,21.574C8.98,21.402 8.875,21.23 8.637,21.23L7.922,21.23L7.809,20.418L8.422,20.418C8.656,20.418 8.766,20.246 8.766,20.074C8.766,19.902 8.66,19.73 8.422,19.73L7.707,19.73L7.551,18.582C7.516,18.324 7.406,18.238 7.195,18.238C7.023,18.238 6.867,18.351 6.867,18.523C6.867,18.629 6.867,18.582 6.883,18.695L7.027,19.73L6.344,19.73L6.188,18.582C6.152,18.324 6.047,18.238 5.832,18.238C5.66,18.238 5.504,18.351 5.504,18.523C5.504,18.629 5.504,18.582 5.52,18.695L5.66,19.73L5.047,19.73C4.812,19.73 4.703,19.902 4.703,20.074C4.703,20.246 4.809,20.418 5.047,20.418L5.762,20.418L5.875,21.23L5.879,21.23ZM6.457,20.418L7.133,20.418L7.246,21.23L6.57,21.23L6.457,20.418ZM9.918,22.293C9.918,22.914 10.383,23.449 11.016,23.449C11.648,23.449 12.113,22.914 12.113,22.293C12.113,21.672 11.648,21.144 11.016,21.144C10.379,21.144 9.918,21.672 9.918,22.293ZM11.387,22.293C11.387,22.519 11.25,22.718 11.016,22.718C10.781,22.718 10.645,22.519 10.645,22.293C10.645,22.062 10.781,21.871 11.016,21.871C11.25,21.871 11.387,22.062 11.387,22.293ZM13.121,23.261C13.215,23.441 13.285,23.488 13.449,23.488C13.672,23.488 13.871,23.308 13.871,23.09C13.871,23.031 13.871,22.984 13.812,22.875L11.418,18.39C11.312,18.242 11.27,18.156 11.098,18.156C10.914,18.156 10.691,18.336 10.691,18.547C10.691,18.652 10.734,18.754 10.762,18.812L13.121,23.261ZM12.43,19.347C12.43,19.968 12.895,20.504 13.527,20.504C14.16,20.504 14.625,19.968 14.625,19.347C14.625,18.726 14.16,18.199 13.527,18.199C12.891,18.199 12.43,18.726 12.43,19.347ZM13.898,19.347C13.898,19.578 13.762,19.773 13.527,19.773C13.293,19.773 13.156,19.574 13.156,19.347C13.156,19.121 13.293,18.925 13.527,18.925C13.762,18.925 13.898,19.117 13.898,19.347ZM15.762,18.757C15.762,19.066 16.012,19.312 16.316,19.312C16.625,19.312 16.871,19.062 16.871,18.757C16.871,18.453 16.621,18.203 16.316,18.203C16.012,18.203 15.762,18.453 15.762,18.757ZM15.805,22.964C15.805,23.265 16.023,23.449 16.316,23.449C16.602,23.449 16.832,23.257 16.832,22.964L16.832,20.218C16.832,19.925 16.605,19.734 16.316,19.734C16.023,19.734 15.805,19.918 15.805,20.218L15.805,22.964ZM21.863,18.16C21.723,18.16 21.637,18.199 21.539,18.308L20.996,18.902L20.941,18.851C20.414,18.367 19.961,18.164 19.422,18.164C18.59,18.164 17.75,18.636 17.75,19.695C17.75,20.527 18.398,21.023 18.789,21.242L18.875,21.293L18.805,21.367C18.484,21.699 18.355,21.976 18.355,22.32C18.355,23.129 19.094,23.496 19.777,23.496C20.352,23.496 21.156,23.156 21.156,22.402C21.156,21.687 20.492,21.277 20.293,21.168L20.207,21.121L21.078,20.117L21.41,20.519C21.594,20.742 21.703,20.836 21.895,20.836C22.047,20.836 22.211,20.699 22.211,20.445C22.211,20.254 22.023,20.007 21.836,19.789L21.613,19.539L22.145,18.91C22.242,18.793 22.285,18.73 22.285,18.59C22.285,18.367 22.082,18.168 21.863,18.168L21.863,18.16ZM19.277,20.765C18.957,20.55 18.629,20.265 18.629,19.797C18.629,19.304 18.949,18.988 19.445,18.988C19.859,18.988 20.129,19.168 20.402,19.441L20.457,19.492L19.332,20.8L19.277,20.765ZM19.781,22.8C19.57,22.8 19.277,22.629 19.277,22.347C19.277,22.086 19.406,21.925 19.68,21.652L19.719,21.613L19.766,21.636C20.137,21.832 20.328,22.05 20.328,22.289C20.328,22.64 20.047,22.8 19.781,22.8Z" style="fill:white;fill-rule:nonzero;"/>
                </g>
            </g>
        </g>
    </g>
</svg>
